IMDB 
http://www.imdb.com/title/tt1571243/


Format                           : MPEG-4
Format profile                   : Base Media / Version 2
Codec ID                         : mp42
File size                        : 558 MiB
Duration                         : 1h 31mn
Overall bit rate                 : 853 Kbps

Video
ID                               : 1
Format                           : AVC
Format/Info                      : Advanced Video Codec
Codec ID                         : avc1
Codec ID/Info                    : Advanced Video Coding
Duration                         : 1h 31mn
Bit rate mode                    : Variable
Bit rate                         : 770 Kbps
Maximum bit rate                 : 4 665 Kbps
Width                            : 640 pixels
Height                           : 480 pixels
Display aspect ratio             : 4:3
Frame rate mode                  : Constant
Frame rate                       : 25.000 fps
Standard                         : PAL
Stream size                      : 503 MiB (90%)
Language                         : English

Audio
ID                               : 2
Format                           : AAC
Format/Info                      : Advanced Audio Codec
Format profile                   : HE-AAC / LC
Codec ID                         : 40
Duration                         : 1h 31mn
Bit rate mode                    : Variable
Bit rate                         : 80.0 Kbps
Maximum bit rate                 : 91.3 Kbps
Channel(s)                       : 2 channels
Channel positions                : Front: L R
Sampling rate                    : 48.0 KHz / 24.0 KHz
Compression mode                 : Lossy
Stream size                      : 52.3 MiB (9%)
Language                         : English
